{"glyphs":{"0":{"ha":614,"x_min":49,"x_max":565,"o":"m 565.0 293.0 l 565.0 293.0 q 565.0 205.0 531.5 136.5 q 498.0 68.0 439.5 29.0 q 381.0 -10.0 307.0 -10.0 l 307.0 -10.0 q 233.0 -10.0 174.5 29.0 q 116.0 68.0 82.5 136.5 q 49.0 205.0 49.0 293.0 l 49.0 293.0 q 49.0 381.0 82.5 449.5 q 116.0 518.0 174.5 557.5 q 233.0 597.0 307.0 597.0 l 307.0 597.0 q 381.0 597.0 439.5 557.5 q 498.0 518.0 531.5 449.5 q 565.0 381.0 565.0 293.0 z m 430.0 293.0 l 430.0 293.0 q 430.0 347.0 414.5 387.5 q 399.0 428.0 371.0 451.0 q 343.0 474.0 307.0 474.0 l 307.0 474.0 q 270.0 474.0 242.0 451.0 q 214.0 428.0 198.5 387.5 q 183.0 347.0 183.0 293.0 l 183.0 293.0 q 183.0 239.0 198.5 199.0 q 214.0 159.0 242.0 136.0 q 270.0 113.0 307.0 113.0 l 307.0 113.0 q 343.0 113.0 370.5 136.0 q 398.0 159.0 414.0 199.5 q 430.0 240.0 430.0 293.0 z"},"1":{"ha":494,"x_min":44,"x_max":470,"o":"m 343.0 121.0 l 470.0 121.0 l 470.0 0.0 l 64.0 0.0 l 64.0 121.0 l 206.0 121.0 l 206.0 424.0 q 197.0 412.0 178.0 399.5 q 159.0 387.0 135.0 376.0 q 111.0 365.0 87.0 358.0 q 63.0 351.0 44.0 351.0 l 44.0 351.0 l 44.0 476.0 q 62.0 476.0 87.5 487.5 q 113.0 499.0 138.5 515.0 q 164.0 531.0 182.5 546.5 q 201.0 562.0 206.0 571.0 l 206.0 571.0 l 343.0 571.0 l 343.0 121.0 z"},"2":{"ha":564,"x_min":38,"x_max":520,"o":"m 520.0 0.0 l 38.0 0.0 q 38.0 45.0 45.0 81.0 q 52.0 117.0 69.5 148.0 q 87.0 179.0 117.5 206.5 q 148.0 234.0 195.0 260.0 l 195.0 260.0 q 236.0 282.0 267.0 298.5 q 298.0 315.0 319.5 329.0 q 341.0 343.0 352.0 357.5 q 363.0 372.0 363.0 391.0 l 363.0 391.0 q 363.0 411.0 352.0 427.5 q 341.0 444.0 321.0 454.0 q 301.0 464.0 271.0 464.0 l 271.0 464.0 q 247.0 464.0 226.5 458.0 q 206.0 452.0 188.5 441.0 q 171.0 430.0 156.0 416.5 q 141.0 403.0 129.0 388.0 l 129.0 388.0 l 44.0 486.0 q 58.0 500.0 81.5 516.5 q 105.0 533.0 137.5 547.5 q 170.0 562.0 209.5 571.5 q 249.0 581.0 294.0 581.0 l 294.0 581.0 q 362.0 581.0 410.0 559.5 q 458.0 538.0 483.5 500.0 q 509.0 462.0 509.0 411.0 l 509.0 411.0 q 509.0 376.0 496.0 349.0 q 483.0 322.0 463.0 301.5 q 443.0 281.0 419.5 265.0 q 396.0 249.0 374.0 237.0 l 374.0 237.0 q 343.0 221.0 318.0 207.5 q 293.0 194.0 274.0 180.5 q 255.0 167.0 240.5 153.0 q 226.0 139.0 215.0 121.0 l 215.0 121.0 l 520.0 121.0 l 520.0 0.0 z"},"3":{"ha":558,"x_min":28,"x_max":520,"o":"m 381.0 236.0 l 381.0 236.0 q 423.0 229.0 454.0 204.5 q 485.0 180.0 502.5 142.0 q 520.0 104.0 520.0 58.0 l 520.0 58.0 q 520.0 -4.0 488.0 -50.0 q 456.0 -96.0 397.5 -121.5 q 339.0 -147.0 260.0 -147.0 l 260.0 -147.0 q 184.0 -147.0 125.5 -122.5 q 67.0 -98.0 28.0 -51.0 l 28.0 -51.0 l 104.0 44.0 q 130.0 12.0 166.5 -6.5 q 203.0 -25.0 256.0 -25.0 l 256.0 -25.0 q 317.0 -25.0 349.0 -0.5 q 381.0 24.0 381.0 73.0 l 381.0 73.0 q 381.0 125.0 344.0 153.0 q 307.0 181.0 232.0 181.0 l 232.0 181.0 l 204.0 181.0 l 204.0 281.0 l 235.0 281.0 q 296.0 281.0 330.5 309.0 q 365.0 337.0 365.0 379.0 l 365.0 379.0 q 365.0 406.0 352.0 424.0 q 339.0 442.0 316.5 451.0 q 294.0 460.0 264.0 460.0 l 264.0 460.0 q 219.0 460.0 182.0 439.0 q 145.0 418.0 122.0 380.0 l 122.0 380.0 l 38.0 474.0 q 59.0 505.0 95.5 527.5 q 132.0 550.0 179.5 563.0 q 227.0 576.0 279.0 576.0 l 279.0 576.0 q 347.0 576.0 398.5 554.0 q 450.0 532.0 479.0 492.0 q 508.0 452.0 508.0 399.0 l 508.0 399.0 q 508.0 360.0 492.0 325.0 q 476.0 290.0 447.5 266.5 q 419.0 243.0 381.0 236.0 z"},"4":{"ha":571,"x_min":20,"x_max":534,"o":"m 446.0 -127.0 l 312.0 -127.0 l 312.0 22.0 l 20.0 22.0 l 20.0 141.0 l 355.0 571.0 l 446.0 571.0 l 446.0 142.0 l 534.0 142.0 l 534.0 22.0 l 446.0 22.0 l 446.0 -127.0 z m 327.0 368.0 l 154.0 142.0 l 327.0 142.0 l 327.0 368.0 z"},"5":{"ha":554,"x_min":29,"x_max":523,"o":"m 262.0 -149.0 l 262.0 -149.0 q 185.0 -149.0 123.0 -116.0 q 61.0 -83.0 29.0 -26.0 l 29.0 -26.0 l 106.0 54.0 q 134.0 15.0 176.0 -8.0 q 218.0 -31.0 263.0 -31.0 l 263.0 -31.0 q 299.0 -31.0 326.5 -16.0 q 354.0 -1.0 370.0 26.0 q 386.0 53.0 386.0 88.0 l 386.0 88.0 q 386.0 123.0 371.0 149.0 q 356.0 175.0 330.0 189.5 q 304.0 204.0 271.0 204.0 l 271.0 204.0 q 238.0 204.0 209.5 189.5 q 181.0 175.0 164.0 148.0 l 164.0 148.0 l 47.0 148.0 l 129.0 571.0 l 479.0 571.0 l 479.0 449.0 l 226.0 449.0 l 197.0 290.0 q 210.0 302.0 233.0 310.5 q 256.0 319.0 290.0 319.0 l 290.0 319.0 q 357.0 319.0 410.0 290.0 q 463.0 261.0 493.0 209.5 q 523.0 158.0 523.0 91.0 l 523.0 91.0 q 523.0 20.0 489.0 -34.5 q 455.0 -89.0 396.0 -119.0 q 337.0 -149.0 262.0 -149.0 z"},"6":{"ha":607,"x_min":46,"x_max":567,"o":"m 567.0 237.0 l 567.0 237.0 q 567.0 304.0 534.5 357.5 q 502.0 411.0 446.0 442.5 q 390.0 474.0 319.0 474.0 l 319.0 474.0 q 286.0 474.0 257.0 464.5 q 228.0 455.0 206.0 437.5 q 184.0 420.0 170.0 396.0 l 170.0 396.0 q 172.0 460.0 190.0 505.5 q 208.0 551.0 241.0 575.0 q 274.0 599.0 319.0 599.0 l 319.0 599.0 q 363.0 599.0 401.0 577.5 q 439.0 556.0 463.0 519.0 l 463.0 519.0 l 540.0 603.0 q 501.0 657.0 444.5 686.0 q 388.0 715.0 321.0 715.0 l 321.0 715.0 q 237.0 715.0 175.0 669.5 q 113.0 624.0 79.5 534.5 q 46.0 445.0 46.0 316.0 l 46.0 316.0 q 46.0 214.0 78.0 141.0 q 110.0 68.0 168.5 29.0 q 227.0 -10.0 307.0 -10.0 l 307.0 -10.0 q 381.0 -10.0 439.5 23.0 q 498.0 56.0 532.5 112.0 q 567.0 168.0 567.0 237.0 z m 307.0 103.0 l 307.0 103.0 q 273.0 103.0 243.0 121.5 q 213.0 140.0 195.0 170.5 q 177.0 201.0 177.0 237.0 l 177.0 237.0 q 177.0 273.0 194.5 302.5 q 212.0 332.0 242.0 349.5 q 272.0 367.0 308.0 367.0 l 308.0 367.0 q 344.0 367.0 373.5 349.5 q 403.0 332.0 421.0 302.5 q 439.0 273.0 439.0 237.0 l 439.0 237.0 q 439.0 201.0 421.0 170.5 q 403.0 140.0 373.0 121.5 q 343.0 103.0 307.0 103.0 z"},"7":{"ha":561,"x_min":28,"x_max":562,"o":"m 58.0 -127.0 l 351.0 461.0 l 28.0 461.0 l 28.0 583.0 l 562.0 583.0 l 210.0 -127.0 l 58.0 -127.0 z"},"8":{"ha":604,"x_min":44,"x_max":560,"o":"m 560.0 210.0 l 560.0 210.0 q 560.0 144.0 524.5 95.0 q 489.0 46.0 430.0 18.5 q 371.0 -9.0 301.0 -9.0 l 301.0 -9.0 q 230.0 -9.0 171.5 20.0 q 113.0 49.0 78.5 99.5 q 44.0 150.0 44.0 215.0 l 44.0 215.0 q 44.0 255.0 61.0 287.5 q 78.0 320.0 103.5 343.5 q 129.0 367.0 155.0 380.0 l 155.0 380.0 q 131.0 392.0 110.5 412.0 q 90.0 432.0 78.0 458.0 q 66.0 484.0 66.0 513.0 l 66.0 513.0 q 66.0 560.0 87.0 597.0 q 108.0 634.0 143.0 659.5 q 178.0 685.0 219.5 697.5 q 261.0 710.0 302.0 710.0 l 302.0 710.0 q 342.0 710.0 384.0 697.5 q 426.0 685.0 461.0 660.0 q 496.0 635.0 517.5 598.5 q 539.0 562.0 539.0 514.0 l 539.0 514.0 q 539.0 486.0 526.5 459.5 q 514.0 433.0 493.5 412.5 q 473.0 392.0 447.0 380.0 l 447.0 380.0 q 476.0 365.0 502.0 341.0 q 528.0 317.0 544.0 284.0 q 560.0 251.0 560.0 210.0 z m 424.0 218.0 l 424.0 218.0 q 424.0 244.0 414.0 263.5 q 404.0 283.0 386.0 296.5 q 368.0 310.0 346.0 317.0 q 324.0 324.0 301.0 324.0 l 301.0 324.0 q 269.0 324.0 241.5 311.0 q 214.0 298.0 197.0 274.0 q 180.0 250.0 180.0 218.0 l 180.0 218.0 q 180.0 194.0 190.5 174.5 q 201.0 155.0 218.5 141.0 q 236.0 127.0 257.5 119.5 q 279.0 112.0 302.0 112.0 l 302.0 112.0 q 334.0 112.0 362.0 126.0 q 390.0 140.0 407.0 164.0 q 424.0 188.0 424.0 218.0 z m 202.0 509.0 l 202.0 509.0 q 202.0 482.0 217.0 463.0 q 232.0 444.0 255.5 434.5 q 279.0 425.0 302.0 425.0 l 302.0 425.0 q 326.0 425.0 348.5 435.0 q 371.0 445.0 386.5 463.5 q 402.0 482.0 402.0 510.0 l 402.0 510.0 q 402.0 535.0 388.0 553.0 q 374.0 571.0 351.5 581.0 q 329.0 591.0 301.0 591.0 l 301.0 591.0 q 275.0 591.0 252.0 581.0 q 229.0 571.0 215.5 552.5 q 202.0 534.0 202.0 509.0 z"},"9":{"ha":589,"x_min":32,"x_max":553,"o":"m 32.0 324.0 l 32.0 324.0 q 32.0 257.0 64.5 203.5 q 97.0 150.0 153.5 118.5 q 210.0 87.0 279.0 87.0 l 279.0 87.0 q 313.0 87.0 341.5 96.5 q 370.0 106.0 392.5 124.0 q 415.0 142.0 428.0 165.0 l 428.0 165.0 q 427.0 101.0 408.5 55.5 q 390.0 10.0 357.5 -14.0 q 325.0 -38.0 280.0 -38.0 l 280.0 -38.0 q 236.0 -38.0 197.5 -16.5 q 159.0 5.0 135.0 42.0 l 135.0 42.0 l 58.0 -42.0 q 97.0 -96.0 154.0 -125.0 q 211.0 -154.0 278.0 -154.0 l 278.0 -154.0 q 362.0 -154.0 424.0 -108.0 q 486.0 -62.0 519.5 27.0 q 553.0 116.0 553.0 245.0 l 553.0 245.0 q 553.0 348.0 521.0 420.5 q 489.0 493.0 430.5 532.0 q 372.0 571.0 291.0 571.0 l 291.0 571.0 q 218.0 571.0 159.0 538.0 q 100.0 505.0 66.0 449.0 q 32.0 393.0 32.0 324.0 z m 291.0 458.0 l 291.0 458.0 q 326.0 458.0 356.0 439.5 q 386.0 421.0 404.0 390.5 q 422.0 360.0 422.0 324.0 l 422.0 324.0 q 422.0 288.0 404.0 258.5 q 386.0 229.0 356.5 211.5 q 327.0 194.0 291.0 194.0 l 291.0 194.0 q 255.0 194.0 225.0 211.5 q 195.0 229.0 177.5 258.5 q 160.0 288.0 160.0 324.0 l 160.0 324.0 q 160.0 361.0 178.0 391.0 q 196.0 421.0 226.0 439.5 q 256.0 458.0 291.0 458.0 z"}," ":{"ha":240,"x_min":0,"x_max":0,"o":""},"!":{"ha":307,"x_min":87,"x_max":221,"o":"m 221.0 267.0 l 87.0 267.0 l 87.0 717.0 l 221.0 717.0 l 221.0 267.0 z m 221.0 0.0 l 87.0 0.0 l 87.0 151.0 l 221.0 151.0 l 221.0 0.0 z"},"\"":{"ha":393,"x_min":61,"x_max":332,"o":"m 175.0 499.0 l 61.0 499.0 l 61.0 723.0 l 175.0 723.0 l 175.0 499.0 z m 332.0 499.0 l 218.0 499.0 l 218.0 723.0 l 332.0 723.0 l 332.0 499.0 z"},"#":{"ha":721,"x_min":37,"x_max":685,"o":"m 685.0 518.0 l 685.0 424.0 l 539.0 424.0 l 507.0 287.0 l 638.0 287.0 l 638.0 187.0 l 483.0 187.0 l 437.0 0.0 l 329.0 0.0 l 376.0 187.0 l 256.0 187.0 l 211.0 0.0 l 103.0 0.0 l 149.0 187.0 l 37.0 187.0 l 37.0 287.0 l 173.0 287.0 l 206.0 424.0 l 84.0 424.0 l 84.0 518.0 l 229.0 518.0 l 276.0 710.0 l 384.0 710.0 l 336.0 518.0 l 456.0 518.0 l 502.0 710.0 l 610.0 710.0 l 563.0 518.0 l 685.0 518.0 z m 280.0 287.0 l 400.0 287.0 l 432.0 424.0 l 313.0 424.0 l 280.0 287.0 z"},"$":{"ha":634,"x_min":34,"x_max":595,"o":"m 288.0 714.0 l 288.0 815.0 l 355.0 815.0 l 355.0 714.0 q 387.0 711.0 417.0 704.0 l 417.0 704.0 q 461.0 693.0 500.0 675.0 q 539.0 657.0 570.0 636.0 l 570.0 636.0 l 509.0 524.0 q 502.0 531.0 483.5 543.0 q 465.0 555.0 438.5 566.0 q 412.0 577.0 381.0 586.0 l 381.0 586.0 q 363.0 590.0 345.0 592.0 l 345.0 592.0 l 345.0 419.0 q 356.0 416.0 367.0 413.0 l 367.0 413.0 q 437.0 396.0 488.5 371.5 q 540.0 347.0 567.5 307.5 q 595.0 268.0 595.0 203.0 l 595.0 203.0 q 595.0 146.0 574.0 105.5 q 553.0 65.0 516.0 40.0 q 479.0 15.0 432.0 4.0 l 432.0 4.0 q 395.0 -5.0 355.0 -7.0 l 355.0 -7.0 l 355.0 -117.0 l 288.0 -117.0 l 288.0 -6.0 q 257.0 -3.0 226.0 3.0 l 226.0 3.0 q 172.0 14.0 123.5 34.5 q 75.0 55.0 34.0 84.0 l 34.0 84.0 l 95.0 203.0 q 104.0 194.0 127.0 179.5 q 150.0 165.0 182.5 150.5 q 215.0 136.0 255.0 126.0 l 255.0 126.0 q 276.0 121.0 297.0 118.0 l 297.0 118.0 l 297.0 290.0 q 281.0 295.0 264.0 300.0 l 264.0 300.0 q 196.0 319.0 151.0 342.5 q 106.0 366.0 84.0 402.0 q 62.0 438.0 62.0 492.0 l 62.0 492.0 q 62.0 565.0 97.0 614.5 q 132.0 664.0 191.0 690.0 l 191.0 690.0 q 236.0 709.0 288.0 714.0 l 288.0 714.0 z m 345.0 275.0 l 345.0 275.0 l 345.0 116.0 q 393.0 118.0 419.0 135.0 l 419.0 135.0 q 448.0 154.0 448.0 189.0 l 448.0 189.0 q 448.0 221.0 425.0 239.0 q 402.0 257.0 361.0 271.0 l 361.0 271.0 q 353.0 273.0 345.0 275.0 z m 297.0 433.0 l 297.0 433.0 l 297.0 593.0 q 256.0 590.0 234.0 573.0 l 234.0 573.0 q 205.0 552.0 205.0 514.0 l 205.0 514.0 q 205.0 485.0 223.0 468.0 q 241.0 451.0 277.0 439.0 l 277.0 439.0 q 286.0 436.0 297.0 433.0 z"},"%":{"ha":786,"x_min":35,"x_max":751,"o":"m 200.0 417.0 l 200.0 417.0 q 154.0 417.0 117.0 437.5 q 80.0 458.0 57.5 492.5 q 35.0 527.0 35.0 569.0 l 35.0 569.0 q 35.0 611.0 57.5 645.5 q 80.0 680.0 117.0 700.0 q 154.0 720.0 200.0 720.0 l 200.0 720.0 q 246.0 720.0 283.5 700.0 q 321.0 680.0 343.0 645.5 q 365.0 611.0 365.0 569.0 l 365.0 569.0 q 365.0 527.0 343.0 492.5 q 321.0 458.0 283.5 437.5 q 246.0 417.0 200.0 417.0 z m 200.0 484.0 l 200.0 484.0 q 220.0 484.0 236.0 496.0 q 252.0 508.0 261.5 527.0 q 271.0 546.0 271.0 568.0 l 271.0 568.0 q 271.0 592.0 261.0 611.0 q 251.0 630.0 235.0 641.5 q 219.0 653.0 200.0 653.0 l 200.0 653.0 q 180.0 653.0 164.0 641.5 q 148.0 630.0 138.5 611.0 q 129.0 592.0 129.0 569.0 l 129.0 569.0 q 129.0 546.0 139.0 526.5 q 149.0 507.0 165.0 495.5 q 181.0 484.0 200.0 484.0 z m 586.0 -10.0 l 586.0 -10.0 q 540.0 -10.0 503.0 10.0 q 466.0 30.0 443.5 64.5 q 421.0 99.0 421.0 141.0 l 421.0 141.0 q 421.0 184.0 443.5 218.0 q 466.0 252.0 503.0 272.5 q 540.0 293.0 586.0 293.0 l 586.0 293.0 q 632.0 293.0 669.5 272.5 q 707.0 252.0 729.0 218.0 q 751.0 184.0 751.0 142.0 l 751.0 142.0 q 751.0 100.0 729.0 65.5 q 707.0 31.0 669.5 10.5 q 632.0 -10.0 586.0 -10.0 z m 586.0 57.0 l 586.0 57.0 q 606.0 57.0 622.0 69.0 q 638.0 81.0 647.5 100.0 q 657.0 119.0 657.0 141.0 l 657.0 141.0 q 657.0 165.0 647.5 184.0 q 638.0 203.0 621.5 214.5 q 605.0 226.0 586.0 226.0 l 586.0 226.0 q 567.0 226.0 550.5 214.5 q 534.0 203.0 524.5 183.5 q 515.0 164.0 515.0 142.0 l 515.0 142.0 q 515.0 118.0 525.0 99.0 q 535.0 80.0 551.0 68.5 q 567.0 57.0 586.0 57.0 z m 152.0 -7.0 l 92.0 47.0 l 373.0 376.0 l 633.0 718.0 l 694.0 664.0 l 420.0 340.0 l 152.0 -7.0 z"},"&":{"ha":712,"x_min":40,"x_max":712,"o":"m 712.0 0.0 l 536.0 0.0 l 480.0 59.0 q 447.0 34.0 409.0 17.0 l 409.0 17.0 q 347.0 -10.0 280.0 -10.0 l 280.0 -10.0 q 207.0 -10.0 153.0 19.5 q 99.0 49.0 69.5 97.0 q 40.0 145.0 40.0 201.0 q 40.0 257.0 66.0 299.0 q 92.0 341.0 132.0 374.0 l 132.0 374.0 q 147.0 386.0 163.0 397.0 l 163.0 397.0 q 147.0 416.0 135.0 432.0 l 135.0 432.0 q 109.0 464.0 98.0 491.0 q 87.0 518.0 87.0 549.0 l 87.0 549.0 q 87.0 600.0 112.5 638.5 q 138.0 677.0 182.5 698.0 q 227.0 719.0 282.0 719.0 l 282.0 719.0 q 332.0 719.0 374.5 701.5 q 417.0 684.0 444.0 649.0 q 471.0 614.0 471.0 562.0 l 471.0 562.0 q 471.0 515.0 447.5 477.0 q 424.0 439.0 385.0 407.0 l 385.0 407.0 q 368.0 393.0 350.0 380.0 l 350.0 380.0 l 487.0 236.0 q 494.0 251.0 500.0 268.0 l 500.0 268.0 q 518.0 322.0 518.0 389.0 l 518.0 389.0 l 627.0 389.0 q 627.0 294.0 598.0 221.0 l 598.0 221.0 q 584.0 185.0 565.0 154.0 l 565.0 154.0 l 712.0 0.0 z m 408.0 136.0 l 408.0 136.0 l 244.0 309.0 q 238.0 305.0 232.0 300.0 l 232.0 300.0 q 202.0 278.0 185.5 253.5 q 169.0 229.0 169.0 200.0 l 169.0 200.0 q 169.0 172.0 185.0 148.0 q 201.0 124.0 229.5 109.5 q 258.0 95.0 293.0 95.0 l 293.0 95.0 q 336.0 95.0 377.0 116.0 l 377.0 116.0 q 393.0 124.0 408.0 136.0 z m 268.0 467.0 l 268.0 467.0 q 278.0 473.0 286.0 479.0 l 286.0 479.0 q 316.0 498.0 332.0 517.5 q 348.0 537.0 348.0 560.0 l 348.0 560.0 q 348.0 587.0 329.5 603.5 q 311.0 620.0 282.0 620.0 l 282.0 620.0 q 260.0 620.0 243.5 611.0 q 227.0 602.0 218.0 587.0 q 209.0 572.0 209.0 553.0 l 209.0 553.0 q 209.0 539.0 217.5 525.0 q 226.0 511.0 248.0 489.0 l 248.0 489.0 q 256.0 479.0 268.0 467.0 z"},"'":{"ha":235,"x_min":61,"x_max":175,"o":"m 175.0 499.0 l 61.0 499.0 l 61.0 723.0 l 175.0 723.0 l 175.0 499.0 z"},"(":{"ha":310,"x_min":34,"x_max":285,"o":"m 34.0 347.0 l 34.0 347.0 q 34.0 448.0 77.0 549.5 q 120.0 651.0 183.0 757.0 l 183.0 757.0 l 285.0 714.0 q 270.0 690.0 248.5 649.0 q 227.0 608.0 206.5 556.5 q 186.0 505.0 172.5 450.0 q 159.0 395.0 159.0 344.0 l 159.0 344.0 q 159.0 264.0 193.5 176.5 q 228.0 89.0 282.0 -4.0 l 282.0 -4.0 l 184.0 -53.0 q 143.0 10.0 108.5 76.0 q 74.0 142.0 54.0 211.0 q 34.0 280.0 34.0 347.0 z"},")":{"ha":309,"x_min":24,"x_max":275,"o":"m 275.0 347.0 l 275.0 347.0 q 275.0 280.0 255.0 211.0 q 235.0 142.0 201.0 76.0 q 167.0 10.0 125.0 -53.0 l 125.0 -53.0 l 27.0 -4.0 q 82.0 89.0 116.0 176.5 q 150.0 264.0 150.0 344.0 l 150.0 344.0 q 150.0 395.0 136.5 450.0 q 123.0 505.0 102.5 556.5 q 82.0 608.0 61.0 649.0 q 40.0 690.0 24.0 714.0 l 24.0 714.0 l 127.0 757.0 q 189.0 651.0 232.0 549.5 q 275.0 448.0 275.0 347.0 z"},"*":{"ha":345,"x_min":51,"x_max":293,"o":"m 127.0 486.0 l 75.0 520.0 l 122.0 591.0 l 51.0 613.0 l 69.0 671.0 l 142.0 640.0 l 137.0 717.0 l 208.0 717.0 l 203.0 640.0 l 275.0 671.0 l 293.0 613.0 l 223.0 591.0 l 270.0 520.0 l 218.0 486.0 l 173.0 561.0 l 127.0 486.0 z"},"+":{"ha":421,"x_min":47,"x_max":374,"o":"m 271.0 409.0 l 374.0 409.0 l 374.0 301.0 l 271.0 301.0 l 271.0 188.0 l 150.0 188.0 l 150.0 301.0 l 47.0 301.0 l 47.0 409.0 l 150.0 409.0 l 150.0 522.0 l 271.0 522.0 l 271.0 409.0 z"},",":{"ha":232,"x_min":58,"x_max":174,"o":"m 133.0 -115.0 l 73.0 -115.0 l 100.0 4.0 l 58.0 4.0 l 58.0 144.0 l 174.0 144.0 l 174.0 4.0 l 133.0 -115.0 z"},"-":{"ha":418,"x_min":58,"x_max":361,"o":"m 361.0 214.0 l 58.0 214.0 l 58.0 335.0 l 361.0 335.0 l 361.0 214.0 z"},".":{"ha":225,"x_min":58,"x_max":168,"o":"m 168.0 0.0 l 58.0 0.0 l 58.0 144.0 l 168.0 144.0 l 168.0 0.0 z"},"/":{"ha":698,"x_min":27,"x_max":671,"o":"m 522.0 710.0 l 671.0 710.0 l 175.0 0.0 l 27.0 0.0 l 522.0 710.0 z"},":":{"ha":247,"x_min":69,"x_max":178,"o":"m 178.0 374.0 l 69.0 374.0 l 69.0 518.0 l 178.0 518.0 l 178.0 374.0 z m 178.0 0.0 l 69.0 0.0 l 69.0 144.0 l 178.0 144.0 l 178.0 0.0 z"},";":{"ha":259,"x_min":71,"x_max":188,"o":"m 182.0 374.0 l 72.0 374.0 l 72.0 518.0 l 182.0 518.0 l 182.0 374.0 z m 147.0 -115.0 l 86.0 -115.0 l 113.0 4.0 l 71.0 4.0 l 71.0 144.0 l 188.0 144.0 l 188.0 4.0 l 147.0 -115.0 z"},"<":{"ha":515,"x_min":32,"x_max":454,"o":"m 32.0 223.0 l 32.0 288.0 l 454.0 543.0 l 454.0 401.0 l 227.0 259.0 l 454.0 123.0 l 454.0 -27.0 l 32.0 223.0 z"},"=":{"ha":436,"x_min":62,"x_max":375,"o":"m 375.0 144.0 l 62.0 144.0 l 62.0 231.0 l 375.0 231.0 l 375.0 144.0 z m 375.0 321.0 l 62.0 321.0 l 62.0 408.0 l 375.0 408.0 l 375.0 321.0 z"},">":{"ha":515,"x_min":61,"x_max":483,"o":"m 483.0 288.0 l 483.0 223.0 l 61.0 -27.0 l 61.0 123.0 l 288.0 259.0 l 61.0 401.0 l 61.0 543.0 l 483.0 288.0 z"},"?":{"ha":486,"x_min":34,"x_max":451,"o":"m 232.0 233.0 l 122.0 233.0 q 122.0 265.0 128.5 293.5 q 135.0 322.0 153.0 346.0 q 171.0 370.0 204.0 389.0 l 204.0 389.0 q 218.0 398.0 240.5 410.0 q 263.0 422.0 284.0 437.5 q 305.0 453.0 319.5 474.5 q 334.0 496.0 334.0 524.0 l 334.0 524.0 q 334.0 552.0 320.5 571.0 q 307.0 590.0 285.5 600.0 q 264.0 610.0 239.0 610.0 l 239.0 610.0 q 210.0 610.0 187.0 597.5 q 164.0 585.0 148.0 567.0 q 132.0 549.0 121.0 530.0 l 121.0 530.0 l 34.0 590.0 q 52.0 631.0 83.5 660.0 q 115.0 689.0 156.5 704.0 q 198.0 719.0 243.0 719.0 l 243.0 719.0 q 281.0 719.0 318.0 707.5 q 355.0 696.0 385.0 672.0 q 415.0 648.0 433.0 611.0 q 451.0 574.0 451.0 522.0 l 451.0 522.0 q 451.0 490.0 443.5 465.0 q 436.0 440.0 422.5 420.5 q 409.0 401.0 389.0 385.0 q 369.0 369.0 346.0 354.0 l 346.0 354.0 q 320.0 338.0 293.5 323.0 q 267.0 308.0 249.5 287.5 q 232.0 267.0 232.0 233.0 l 232.0 233.0 z m 235.0 0.0 l 124.0 0.0 l 124.0 138.0 l 235.0 138.0 l 235.0 0.0 z"},"@":{"ha":845,"x_min":42,"x_max":795,"o":"m 422.0 603.0 l 422.0 603.0 q 496.0 603.0 563.0 578.5 q 630.0 554.0 682.5 505.5 q 735.0 457.0 765.0 385.5 q 795.0 314.0 795.0 222.0 l 795.0 222.0 q 795.0 205.0 792.5 176.0 q 790.0 147.0 782.0 114.0 q 774.0 81.0 757.5 51.5 q 741.0 22.0 712.5 3.0 q 684.0 -16.0 641.0 -16.0 l 641.0 -16.0 q 605.0 -16.0 585.5 -3.5 q 566.0 9.0 557.5 28.0 q 549.0 47.0 546.0 66.0 l 546.0 66.0 q 515.0 35.0 471.0 16.5 q 427.0 -2.0 376.0 -2.0 l 376.0 -2.0 q 302.0 -2.0 262.5 37.5 q 223.0 77.0 223.0 138.0 l 223.0 138.0 q 223.0 193.0 250.5 224.5 q 278.0 256.0 321.5 270.0 q 365.0 284.0 410.0 284.0 l 410.0 284.0 q 450.0 284.0 479.0 276.5 q 508.0 269.0 523.0 262.0 l 523.0 262.0 q 523.0 298.0 513.5 326.0 q 504.0 354.0 479.0 369.5 q 454.0 385.0 409.0 385.0 l 409.0 385.0 q 368.0 385.0 334.0 373.0 q 300.0 361.0 276.0 341.0 l 276.0 341.0 l 250.0 412.0 q 287.0 437.0 330.5 449.5 q 374.0 462.0 422.0 462.0 l 422.0 462.0 q 487.0 462.0 524.0 442.5 q 561.0 423.0 577.5 391.5 q 594.0 360.0 598.5 323.5 q 603.0 287.0 603.0 253.0 l 603.0 253.0 l 603.0 157.0 q 603.0 128.0 606.0 102.0 q 609.0 76.0 620.0 60.0 q 631.0 44.0 654.0 44.0 l 654.0 44.0 q 681.0 44.0 698.0 63.5 q 715.0 83.0 724.0 113.0 q 733.0 143.0 736.0 173.5 q 739.0 204.0 739.0 224.0 l 739.0 224.0 q 739.0 294.0 716.0 353.5 q 693.0 413.0 650.0 457.0 q 607.0 501.0 548.5 525.0 q 490.0 549.0 418.0 549.0 l 418.0 549.0 q 348.0 549.0 289.0 525.5 q 230.0 502.0 187.5 459.0 q 145.0 416.0 121.5 357.5 q 98.0 299.0 98.0 230.0 l 98.0 230.0 q 98.0 163.0 120.0 104.5 q 142.0 46.0 182.5 2.0 q 223.0 -42.0 280.0 -67.0 q 337.0 -92.0 407.0 -92.0 l 407.0 -92.0 q 454.0 -92.0 490.0 -81.0 q 526.0 -70.0 563.0 -54.0 l 563.0 -54.0 l 579.0 -106.0 q 538.0 -126.0 493.5 -136.0 q 449.0 -146.0 405.0 -146.0 l 405.0 -146.0 q 330.0 -146.0 264.0 -119.0 q 198.0 -92.0 148.5 -42.0 q 99.0 8.0 70.5 77.0 q 42.0 146.0 42.0 230.0 l 42.0 230.0 q 42.0 319.0 73.0 388.5 q 104.0 458.0 157.0 505.5 q 210.0 553.0 278.5 578.0 q 347.0 603.0 422.0 603.0 z m 471.0 87.0 l 471.0 87.0 q 489.0 96.0 500.5 107.5 q 512.0 119.0 517.0 132.5 q 522.0 146.0 522.0 161.0 l 522.0 161.0 l 522.0 199.0 q 508.0 203.0 478.0 211.5 q 448.0 220.0 410.0 220.0 l 410.0 220.0 q 379.0 220.0 355.0 212.5 q 331.0 205.0 317.0 187.0 q 303.0 169.0 303.0 141.0 l 303.0 141.0 q 303.0 118.0 313.0 101.5 q 323.0 85.0 341.0 76.0 q 359.0 67.0 384.0 67.0 l 384.0 67.0 q 404.0 67.0 428.0 72.0 q 452.0 77.0 471.0 87.0 z"},"A":{"ha":672,"x_min":5,"x_max":668,"o":"m 5.0 0.0 l 267.0 710.0 l 407.0 710.0 l 668.0 0.0 l 526.0 0.0 l 460.0 177.0 l 212.0 177.0 l 147.0 0.0 l 5.0 0.0 z m 235.0 274.0 l 435.0 274.0 l 337.0 567.0 l 235.0 274.0 z"},"B":{"ha":680,"x_min":74,"x_max":646,"o":"m 646.0 183.0 l 646.0 183.0 q 646.0 123.0 615.0 82.5 q 584.0 42.0 531.5 21.0 q 479.0 0.0 417.0 0.0 l 417.0 0.0 l 74.0 0.0 l 74.0 710.0 l 454.0 710.0 q 504.0 710.0 540.5 683.5 q 577.0 657.0 596.5 615.5 q 616.0 574.0 616.0 529.0 l 616.0 529.0 q 616.0 478.0 590.0 432.0 q 564.0 386.0 514.0 364.0 l 514.0 364.0 q 575.0 346.0 610.5 299.0 q 646.0 252.0 646.0 183.0 z m 507.0 209.0 l 507.0 209.0 q 507.0 236.0 496.0 257.5 q 485.0 279.0 466.5 291.5 q 448.0 304.0 424.0 304.0 l 424.0 304.0 l 212.0 304.0 l 212.0 117.0 l 417.0 117.0 q 442.0 117.0 462.5 129.5 q 483.0 142.0 495.0 163.0 q 507.0 184.0 507.0 209.0 z m 402.0 592.0 l 212.0 592.0 l 212.0 413.0 l 396.0 413.0 q 419.0 413.0 438.0 424.0 q 457.0 435.0 468.5 455.0 q 480.0 475.0 480.0 503.0 l 480.0 503.0 q 480.0 530.0 469.5 550.0 q 459.0 570.0 441.5 581.0 q 424.0 592.0 402.0 592.0 l 402.0 592.0 z"},"C":{"ha":686,"x_min":31,"x_max":667,"o":"m 31.0 360.0 l 31.0 360.0 q 31.0 425.0 54.5 487.5 q 78.0 550.0 123.0 601.5 q 168.0 653.0 233.0 683.5 q 298.0 714.0 381.0 714.0 l 381.0 714.0 q 479.0 714.0 550.5 671.0 q 622.0 628.0 657.0 559.0 l 657.0 559.0 l 551.0 486.0 q 533.0 526.0 504.0 549.5 q 475.0 573.0 442.0 582.5 q 409.0 592.0 377.0 592.0 l 377.0 592.0 q 325.0 592.0 286.5 571.0 q 248.0 550.0 222.0 516.0 q 196.0 482.0 183.5 440.0 q 171.0 398.0 171.0 356.0 l 171.0 356.0 q 171.0 309.0 186.0 265.5 q 201.0 222.0 228.5 188.5 q 256.0 155.0 294.5 135.5 q 333.0 116.0 379.0 116.0 l 379.0 116.0 q 412.0 116.0 446.0 127.0 q 480.0 138.0 509.0 162.0 q 538.0 186.0 554.0 224.0 l 554.0 224.0 l 667.0 159.0 q 646.0 106.0 598.5 69.0 q 551.0 32.0 492.0 13.0 q 433.0 -6.0 375.0 -6.0 l 375.0 -6.0 q 299.0 -6.0 236.0 25.5 q 173.0 57.0 127.5 109.5 q 82.0 162.0 56.5 227.5 q 31.0 293.0 31.0 360.0 z"},"D":{"ha":716,"x_min":74,"x_max":682,"o":"m 332.0 0.0 l 74.0 0.0 l 74.0 710.0 l 332.0 710.0 q 448.0 710.0 526.0 662.5 q 604.0 615.0 643.0 534.5 q 682.0 454.0 682.0 356.0 l 682.0 356.0 q 682.0 248.0 639.0 168.0 q 596.0 88.0 517.5 44.0 q 439.0 0.0 332.0 0.0 l 332.0 0.0 z m 543.0 356.0 l 543.0 356.0 q 543.0 425.0 518.0 477.5 q 493.0 530.0 446.0 559.5 q 399.0 589.0 332.0 589.0 l 332.0 589.0 l 212.0 589.0 l 212.0 121.0 l 332.0 121.0 q 400.0 121.0 447.0 151.5 q 494.0 182.0 518.5 235.5 q 543.0 289.0 543.0 356.0 z"},"E":{"ha":601,"x_min":74,"x_max":567,"o":"m 212.0 121.0 l 567.0 121.0 l 567.0 0.0 l 74.0 0.0 l 74.0 710.0 l 558.0 710.0 l 558.0 589.0 l 212.0 589.0 l 212.0 418.0 l 511.0 418.0 l 511.0 306.0 l 212.0 306.0 l 212.0 121.0 z"},"F":{"ha":574,"x_min":74,"x_max":551,"o":"m 212.0 0.0 l 74.0 0.0 l 74.0 710.0 l 551.0 710.0 l 551.0 589.0 l 212.0 589.0 l 212.0 406.0 l 494.0 406.0 l 494.0 294.0 l 212.0 294.0 l 212.0 0.0 z"},"G":{"ha":725,"x_min":32,"x_max":681,"o":"m 369.0 -5.0 l 369.0 -5.0 q 300.0 -5.0 238.5 23.0 q 177.0 51.0 130.5 100.5 q 84.0 150.0 58.0 216.0 q 32.0 282.0 32.0 359.0 l 32.0 359.0 q 32.0 432.0 58.0 496.5 q 84.0 561.0 131.0 610.0 q 178.0 659.0 241.0 687.0 q 304.0 715.0 378.0 715.0 l 378.0 715.0 q 478.0 715.0 549.5 672.5 q 621.0 630.0 657.0 560.0 l 657.0 560.0 l 554.0 484.0 q 527.0 537.0 478.5 565.0 q 430.0 593.0 373.0 593.0 l 373.0 593.0 q 328.0 593.0 291.0 574.0 q 254.0 555.0 227.0 522.0 q 200.0 489.0 185.5 446.0 q 171.0 403.0 171.0 355.0 l 171.0 355.0 q 171.0 304.0 186.5 261.0 q 202.0 218.0 230.5 186.0 q 259.0 154.0 297.0 135.5 q 335.0 117.0 381.0 117.0 l 381.0 117.0 q 435.0 117.0 485.0 145.0 l 485.0 145.0 q 528.0 170.0 567.0 215.0 l 567.0 215.0 l 567.0 264.0 l 424.0 264.0 l 424.0 365.0 l 681.0 365.0 l 681.0 0.0 l 567.0 0.0 l 567.0 81.0 q 481.0 -5.0 369.0 -5.0 z"},"H":{"ha":745,"x_min":74,"x_max":671,"o":"m 534.0 710.0 l 671.0 710.0 l 671.0 0.0 l 534.0 0.0 l 534.0 303.0 l 212.0 303.0 l 212.0 0.0 l 74.0 0.0 l 74.0 710.0 l 212.0 710.0 l 212.0 423.0 l 534.0 423.0 l 534.0 710.0 z"},"I":{"ha":286,"x_min":74,"x_max":212,"o":"m 212.0 0.0 l 74.0 0.0 l 74.0 710.0 l 212.0 710.0 l 212.0 0.0 z"},"J":{"ha":491,"x_min":7,"x_max":425,"o":"m 7.0 33.0 l 38.0 145.0 q 51.0 136.0 84.0 123.5 q 117.0 111.0 162.0 111.0 l 162.0 111.0 q 201.0 111.0 226.0 124.5 q 251.0 138.0 264.5 165.0 q 278.0 192.0 282.5 235.0 q 287.0 278.0 287.0 338.0 l 287.0 338.0 l 287.0 710.0 l 425.0 710.0 l 425.0 349.0 q 425.0 269.0 416.0 203.0 q 407.0 137.0 381.0 89.0 q 355.0 41.0 302.5 15.0 q 250.0 -11.0 163.0 -11.0 l 163.0 -11.0 q 115.0 -11.0 77.0 0.0 q 39.0 11.0 7.0 33.0 l 7.0 33.0 z"},"K":{"ha":669,"x_min":74,"x_max":679,"o":"m 212.0 0.0 l 74.0 0.0 l 74.0 709.0 l 212.0 709.0 l 212.0 372.0 l 510.0 710.0 l 662.0 710.0 l 390.0 395.0 l 679.0 0.0 l 523.0 0.0 l 302.0 306.0 l 212.0 212.0 l 212.0 0.0 z"},"L":{"ha":584,"x_min":74,"x_max":574,"o":"m 574.0 0.0 l 74.0 0.0 l 74.0 710.0 l 212.0 710.0 l 212.0 121.0 l 574.0 121.0 l 574.0 0.0 z"},"M":{"ha":865,"x_min":74,"x_max":791,"o":"m 791.0 0.0 l 653.0 0.0 l 653.0 466.0 l 471.0 119.0 l 394.0 119.0 l 212.0 466.0 l 212.0 0.0 l 74.0 0.0 l 74.0 710.0 l 222.0 710.0 l 432.0 306.0 l 644.0 710.0 l 791.0 710.0 l 791.0 0.0 z"},"N":{"ha":763,"x_min":74,"x_max":689,"o":"m 574.0 0.0 l 212.0 456.0 l 212.0 0.0 l 74.0 0.0 l 74.0 710.0 l 184.0 710.0 l 551.0 242.0 l 551.0 709.0 l 689.0 709.0 l 689.0 0.0 l 574.0 0.0 z"},"O":{"ha":756,"x_min":31,"x_max":724,"o":"m 377.0 -5.0 l 377.0 -5.0 q 299.0 -5.0 235.5 25.0 q 172.0 55.0 126.5 106.5 q 81.0 158.0 56.0 222.5 q 31.0 287.0 31.0 355.0 l 31.0 355.0 q 31.0 426.0 57.5 490.5 q 84.0 555.0 130.5 605.5 q 177.0 656.0 240.5 685.5 q 304.0 715.0 380.0 715.0 l 380.0 715.0 q 457.0 715.0 520.5 684.0 q 584.0 653.0 629.0 601.0 q 674.0 549.0 699.0 485.0 q 724.0 421.0 724.0 353.0 l 724.0 353.0 q 724.0 283.0 698.0 218.5 q 672.0 154.0 625.5 103.5 q 579.0 53.0 515.5 24.0 q 452.0 -5.0 377.0 -5.0 z m 171.0 355.0 l 171.0 355.0 q 171.0 309.0 185.0 266.0 q 199.0 223.0 225.5 189.5 q 252.0 156.0 290.5 136.5 q 329.0 117.0 378.0 117.0 l 378.0 117.0 q 428.0 117.0 467.0 137.5 q 506.0 158.0 532.0 192.5 q 558.0 227.0 571.5 269.5 q 585.0 312.0 585.0 355.0 l 585.0 355.0 q 585.0 401.0 570.5 443.5 q 556.0 486.0 529.5 519.5 q 503.0 553.0 464.5 572.5 q 426.0 592.0 378.0 592.0 l 378.0 592.0 q 327.0 592.0 288.5 571.5 q 250.0 551.0 224.0 517.0 q 198.0 483.0 184.5 441.0 q 171.0 399.0 171.0 355.0 z"},"P":{"ha":623,"x_min":74,"x_max":601,"o":"m 212.0 0.0 l 74.0 0.0 l 74.0 710.0 l 375.0 710.0 q 424.0 710.0 465.0 690.0 q 506.0 670.0 536.5 636.0 q 567.0 602.0 584.0 560.0 q 601.0 518.0 601.0 474.0 l 601.0 474.0 q 601.0 414.0 573.0 360.0 q 545.0 306.0 496.0 272.0 q 447.0 238.0 380.0 238.0 l 380.0 238.0 l 212.0 238.0 l 212.0 0.0 z m 212.0 589.0 l 212.0 359.0 l 372.0 359.0 q 397.0 359.0 417.0 373.0 q 437.0 387.0 449.0 413.5 q 461.0 440.0 461.0 474.0 l 461.0 474.0 q 461.0 511.0 447.5 537.0 q 434.0 563.0 412.5 576.0 q 391.0 589.0 366.0 589.0 l 366.0 589.0 l 212.0 589.0 z"},"Q":{"ha":755,"x_min":31,"x_max":728,"o":"m 377.0 -5.0 l 377.0 -5.0 q 299.0 -5.0 235.5 25.5 q 172.0 56.0 126.5 107.0 q 81.0 158.0 56.0 222.5 q 31.0 287.0 31.0 355.0 l 31.0 355.0 q 31.0 426.0 57.5 490.5 q 84.0 555.0 130.5 605.5 q 177.0 656.0 240.5 685.5 q 304.0 715.0 380.0 715.0 l 380.0 715.0 q 457.0 715.0 520.5 684.0 q 584.0 653.0 629.0 601.0 q 674.0 549.0 699.0 485.0 q 724.0 421.0 724.0 353.0 l 724.0 353.0 q 724.0 283.0 698.0 219.0 l 698.0 219.0 q 673.0 158.0 631.0 109.0 l 631.0 109.0 l 728.0 0.0 l 598.0 0.0 l 557.0 46.0 q 537.0 34.0 516.0 24.0 l 516.0 24.0 q 452.0 -5.0 377.0 -5.0 z m 378.0 117.0 l 378.0 117.0 q 428.0 117.0 467.0 138.0 l 467.0 138.0 q 470.0 139.0 473.0 141.0 l 473.0 141.0 l 364.0 263.0 l 494.0 263.0 l 543.0 208.0 q 561.0 236.0 572.0 270.0 l 572.0 270.0 q 585.0 312.0 585.0 355.0 l 585.0 355.0 q 585.0 401.0 570.5 444.0 q 556.0 487.0 529.5 520.0 q 503.0 553.0 464.5 573.0 q 426.0 593.0 378.0 593.0 l 378.0 593.0 q 327.0 593.0 288.5 572.5 q 250.0 552.0 224.0 517.5 q 198.0 483.0 184.5 441.0 q 171.0 399.0 171.0 355.0 l 171.0 355.0 q 171.0 309.0 185.0 266.0 q 199.0 223.0 225.5 190.0 q 252.0 157.0 290.5 137.0 q 329.0 117.0 378.0 117.0 z"},"R":{"ha":665,"x_min":74,"x_max":648,"o":"m 212.0 0.0 l 74.0 0.0 l 74.0 710.0 l 388.0 710.0 q 437.0 710.0 478.5 690.0 q 520.0 670.0 550.5 636.0 q 581.0 602.0 597.5 560.0 q 614.0 518.0 614.0 474.0 l 614.0 474.0 q 614.0 429.0 598.5 387.5 q 583.0 346.0 554.0 315.0 q 525.0 284.0 486.0 267.0 l 486.0 267.0 l 648.0 0.0 l 496.0 0.0 l 350.0 238.0 l 212.0 238.0 l 212.0 0.0 z m 212.0 589.0 l 212.0 359.0 l 385.0 359.0 q 411.0 359.0 431.0 374.5 q 451.0 390.0 463.0 416.0 q 475.0 442.0 475.0 474.0 l 475.0 474.0 q 475.0 508.0 461.0 533.5 q 447.0 559.0 425.5 574.0 q 404.0 589.0 379.0 589.0 l 379.0 589.0 l 212.0 589.0 z"},"S":{"ha":613,"x_min":22,"x_max":583,"o":"m 558.0 636.0 l 497.0 524.0 q 490.0 531.0 471.5 543.0 q 453.0 555.0 426.5 566.0 q 400.0 577.0 369.0 585.5 q 338.0 594.0 306.0 594.0 l 306.0 594.0 q 250.0 594.0 221.5 573.0 q 193.0 552.0 193.0 514.0 l 193.0 514.0 q 193.0 485.0 211.0 468.0 q 229.0 451.0 265.0 439.0 q 301.0 427.0 355.0 413.0 l 355.0 413.0 q 425.0 396.0 476.5 371.5 q 528.0 347.0 555.5 307.5 q 583.0 268.0 583.0 203.0 l 583.0 203.0 q 583.0 146.0 562.0 105.5 q 541.0 65.0 504.0 40.0 q 467.0 15.0 420.0 3.5 q 373.0 -8.0 320.0 -8.0 l 320.0 -8.0 q 267.0 -8.0 214.0 3.0 q 161.0 14.0 112.0 34.5 q 63.0 55.0 22.0 84.0 l 22.0 84.0 l 83.0 203.0 q 92.0 194.0 115.0 179.5 q 138.0 165.0 171.0 150.5 q 204.0 136.0 243.0 126.0 q 282.0 116.0 322.0 116.0 l 322.0 116.0 q 378.0 116.0 407.0 135.0 q 436.0 154.0 436.0 189.0 l 436.0 189.0 q 436.0 221.0 413.0 239.0 q 390.0 257.0 349.0 270.5 q 308.0 284.0 252.0 300.0 l 252.0 300.0 q 185.0 319.0 140.0 342.5 q 95.0 366.0 73.0 402.0 q 51.0 438.0 51.0 492.0 l 51.0 492.0 q 51.0 565.0 85.5 614.5 q 120.0 664.0 179.0 689.5 q 238.0 715.0 310.0 715.0 l 310.0 715.0 q 360.0 715.0 404.5 704.0 q 449.0 693.0 488.0 675.0 q 527.0 657.0 558.0 636.0 l 558.0 636.0 z"},"T":{"ha":619,"x_min":14,"x_max":605,"o":"m 605.0 710.0 l 605.0 589.0 l 378.0 589.0 l 378.0 0.0 l 241.0 0.0 l 241.0 589.0 l 14.0 589.0 l 14.0 710.0 l 605.0 710.0 z"},"U":{"ha":750,"x_min":64,"x_max":685,"o":"m 375.0 -5.0 l 375.0 -5.0 q 290.0 -5.0 230.5 23.5 q 171.0 52.0 134.5 102.0 q 98.0 152.0 81.0 215.5 q 64.0 279.0 64.0 348.0 l 64.0 348.0 l 64.0 710.0 l 202.0 710.0 l 202.0 348.0 q 202.0 304.0 210.5 262.5 q 219.0 221.0 239.0 188.0 q 259.0 155.0 292.0 136.0 q 325.0 117.0 374.0 117.0 l 374.0 117.0 q 424.0 117.0 457.5 136.5 q 491.0 156.0 510.5 189.0 q 530.0 222.0 539.0 263.5 q 548.0 305.0 548.0 348.0 l 548.0 348.0 l 548.0 710.0 l 685.0 710.0 l 685.0 348.0 q 685.0 275.0 667.5 211.0 q 650.0 147.0 612.5 98.5 q 575.0 50.0 516.0 22.5 q 457.0 -5.0 375.0 -5.0 z"},"V":{"ha":676,"x_min":2,"x_max":674,"o":"m 2.0 710.0 l 147.0 710.0 l 339.0 164.0 l 529.0 710.0 l 674.0 710.0 l 405.0 0.0 l 272.0 0.0 l 2.0 710.0 z"},"W":{"ha":1053,"x_min":0,"x_max":1054,"o":"m 438.0 385.0 l 317.0 708.0 l 445.0 708.0 l 526.0 473.0 l 608.0 708.0 l 735.0 708.0 l 613.0 385.0 l 703.0 159.0 l 904.0 710.0 l 1054.0 710.0 l 770.0 0.0 l 651.0 0.0 l 526.0 298.0 l 402.0 0.0 l 283.0 0.0 l 0.0 710.0 l 148.0 710.0 l 350.0 159.0 l 438.0 385.0 z"},"X":{"ha":646,"x_min":-3,"x_max":649,"o":"m -3.0 710.0 l 148.0 710.0 l 324.0 448.0 l 499.0 710.0 l 649.0 710.0 l 403.0 350.0 l 641.0 0.0 l 491.0 0.0 l 324.0 252.0 l 156.0 0.0 l 5.0 0.0 l 243.0 350.0 l -3.0 710.0 z"},"Y":{"ha":660,"x_min":4,"x_max":656,"o":"m 4.0 710.0 l 154.0 710.0 l 329.0 376.0 l 507.0 710.0 l 656.0 710.0 l 398.0 248.0 l 398.0 0.0 l 261.0 0.0 l 261.0 250.0 l 4.0 710.0 z"},"Z":{"ha":627,"x_min":30,"x_max":593,"o":"m 30.0 0.0 l 30.0 104.0 l 426.0 589.0 l 41.0 589.0 l 41.0 710.0 l 590.0 710.0 l 590.0 606.0 l 207.0 121.0 l 593.0 121.0 l 593.0 0.0 l 30.0 0.0 z"},"a":{"ha":574,"x_min":25,"x_max":542,"o":"m 25.0 155.0 l 25.0 155.0 q 25.0 206.0 53.5 244.5 q 82.0 283.0 133.0 304.0 q 184.0 325.0 250.0 325.0 l 250.0 325.0 q 283.0 325.0 317.0 320.0 q 351.0 315.0 376.0 304.0 l 376.0 304.0 l 376.0 332.0 q 376.0 382.0 346.5 409.0 q 317.0 436.0 259.0 436.0 l 259.0 436.0 q 216.0 436.0 177.0 421.0 q 138.0 406.0 95.0 377.0 l 95.0 377.0 l 52.0 465.0 q 104.0 499.0 158.5 516.0 q 213.0 533.0 273.0 533.0 l 273.0 533.0 q 385.0 533.0 447.5 477.0 q 510.0 421.0 510.0 317.0 l 510.0 317.0 l 510.0 150.0 q 510.0 129.0 517.5 120.0 q 525.0 111.0 542.0 109.0 l 542.0 109.0 l 542.0 0.0 q 524.0 -3.0 509.5 -5.0 q 495.0 -7.0 485.0 -7.0 l 485.0 -7.0 q 445.0 -7.0 424.5 11.0 q 404.0 29.0 399.0 55.0 l 399.0 55.0 l 396.0 82.0 q 362.0 38.0 311.0 14.0 q 260.0 -10.0 207.0 -10.0 l 207.0 -10.0 q 155.0 -10.0 113.5 11.5 q 72.0 33.0 48.5 70.5 q 25.0 108.0 25.0 155.0 z m 351.0 128.0 l 351.0 128.0 q 362.0 140.0 369.0 152.0 q 376.0 164.0 376.0 174.0 l 376.0 174.0 l 376.0 227.0 q 352.0 237.0 324.0 242.5 q 296.0 248.0 271.0 248.0 l 271.0 248.0 q 219.0 248.0 185.5 225.5 q 152.0 203.0 152.0 166.0 l 152.0 166.0 q 152.0 146.0 163.0 128.0 q 174.0 110.0 195.0 99.0 q 216.0 88.0 245.0 88.0 l 245.0 88.0 q 275.0 88.0 304.0 99.5 q 333.0 111.0 351.0 128.0 z"},"b":{"ha":634,"x_min":61,"x_max":604,"o":"m 359.0 -10.0 l 359.0 -10.0 q 299.0 -10.0 252.0 17.0 q 205.0 44.0 178.0 91.0 l 178.0 91.0 l 178.0 0.0 l 61.0 0.0 l 61.0 730.0 l 195.0 730.0 l 195.0 432.0 q 223.0 479.0 268.5 506.0 q 314.0 533.0 375.0 533.0 l 375.0 533.0 q 426.0 533.0 468.0 511.5 q 510.0 490.0 540.5 452.0 q 571.0 414.0 587.5 365.0 q 604.0 316.0 604.0 260.0 l 604.0 260.0 q 604.0 204.0 585.5 155.0 q 567.0 106.0 534.0 68.5 q 501.0 31.0 456.5 10.5 q 412.0 -10.0 359.0 -10.0 z m 322.0 104.0 l 322.0 104.0 q 354.0 104.0 380.5 116.5 q 407.0 129.0 426.5 150.0 q 446.0 171.0 456.5 199.5 q 467.0 228.0 467.0 259.0 l 467.0 259.0 q 467.0 302.0 449.5 338.5 q 432.0 375.0 401.5 397.0 q 371.0 419.0 330.0 419.0 l 330.0 419.0 q 301.0 419.0 274.5 405.5 q 248.0 392.0 227.5 369.0 q 207.0 346.0 195.0 317.0 l 195.0 317.0 l 195.0 192.0 q 201.0 172.0 214.5 156.0 q 228.0 140.0 246.0 128.5 q 264.0 117.0 283.5 110.5 q 303.0 104.0 322.0 104.0 z"},"c":{"ha":564,"x_min":28,"x_max":543,"o":"m 305.0 -10.0 l 305.0 -10.0 q 241.0 -10.0 190.0 11.5 q 139.0 33.0 103.0 71.5 q 67.0 110.0 47.5 159.0 q 28.0 208.0 28.0 262.0 l 28.0 262.0 q 28.0 336.0 61.5 397.5 q 95.0 459.0 157.0 496.0 q 219.0 533.0 304.0 533.0 l 304.0 533.0 q 389.0 533.0 450.0 496.0 q 511.0 459.0 541.0 399.0 l 541.0 399.0 l 410.0 359.0 q 393.0 388.0 365.0 403.5 q 337.0 419.0 303.0 419.0 l 303.0 419.0 q 265.0 419.0 233.5 399.5 q 202.0 380.0 184.0 344.5 q 166.0 309.0 166.0 262.0 l 166.0 262.0 q 166.0 216.0 184.5 180.5 q 203.0 145.0 234.0 124.5 q 265.0 104.0 303.0 104.0 l 303.0 104.0 q 327.0 104.0 348.5 112.0 q 370.0 120.0 387.0 134.0 q 404.0 148.0 412.0 166.0 l 412.0 166.0 l 543.0 126.0 q 525.0 87.0 490.5 56.0 q 456.0 25.0 409.5 7.5 q 363.0 -10.0 305.0 -10.0 z"},"d":{"ha":645,"x_min":29,"x_max":605,"o":"m 29.0 262.0 l 29.0 262.0 q 29.0 338.0 59.0 399.5 q 89.0 461.0 142.0 497.0 q 195.0 533.0 263.0 533.0 l 263.0 533.0 q 321.0 533.0 367.5 504.5 q 414.0 476.0 440.0 432.0 l 440.0 432.0 l 440.0 730.0 l 574.0 730.0 l 574.0 150.0 q 574.0 129.0 581.0 120.0 q 588.0 111.0 605.0 109.0 l 605.0 109.0 l 605.0 0.0 q 570.0 -7.0 548.0 -7.0 l 548.0 -7.0 q 512.0 -7.0 488.5 11.0 q 465.0 29.0 462.0 58.0 l 462.0 58.0 l 460.0 91.0 q 431.0 42.0 381.5 16.0 q 332.0 -10.0 278.0 -10.0 l 278.0 -10.0 q 224.0 -10.0 178.5 11.0 q 133.0 32.0 99.5 69.0 q 66.0 106.0 47.5 155.5 q 29.0 205.0 29.0 262.0 z m 440.0 192.0 l 440.0 192.0 l 440.0 317.0 q 430.0 346.0 408.0 369.0 q 386.0 392.0 359.0 405.5 q 332.0 419.0 305.0 419.0 l 305.0 419.0 q 274.0 419.0 249.0 406.0 q 224.0 393.0 205.5 371.0 q 187.0 349.0 177.5 320.0 q 168.0 291.0 168.0 259.0 l 168.0 259.0 q 168.0 227.0 178.5 198.5 q 189.0 170.0 209.0 149.0 q 229.0 128.0 255.5 116.0 q 282.0 104.0 313.0 104.0 l 313.0 104.0 q 332.0 104.0 351.5 110.5 q 371.0 117.0 388.5 128.5 q 406.0 140.0 419.5 156.5 q 433.0 173.0 440.0 192.0 z"},"e":{"ha":599,"x_min":28,"x_max":578,"o":"m 304.0 -10.0 l 304.0 -10.0 q 241.0 -10.0 190.0 11.5 q 139.0 33.0 103.0 70.5 q 67.0 108.0 47.5 156.5 q 28.0 205.0 28.0 259.0 l 28.0 259.0 q 28.0 334.0 61.5 396.0 q 95.0 458.0 157.5 495.5 q 220.0 533.0 305.0 533.0 l 305.0 533.0 q 391.0 533.0 452.0 495.5 q 513.0 458.0 545.5 396.5 q 578.0 335.0 578.0 264.0 l 578.0 264.0 q 578.0 252.0 577.0 239.5 q 576.0 227.0 575.0 219.0 l 575.0 219.0 l 170.0 219.0 q 174.0 179.0 193.5 149.0 q 213.0 119.0 243.5 103.5 q 274.0 88.0 309.0 88.0 l 309.0 88.0 q 349.0 88.0 384.5 107.5 q 420.0 127.0 433.0 159.0 l 433.0 159.0 l 548.0 127.0 q 529.0 87.0 493.5 56.0 q 458.0 25.0 410.0 7.5 q 362.0 -10.0 304.0 -10.0 z m 167.0 304.0 l 167.0 304.0 l 441.0 304.0 q 437.0 344.0 418.5 373.5 q 400.0 403.0 370.0 419.5 q 340.0 436.0 303.0 436.0 l 303.0 436.0 q 267.0 436.0 237.5 419.5 q 208.0 403.0 189.5 373.5 q 171.0 344.0 167.0 304.0 z"},"f":{"ha":370,"x_min":24,"x_max":397,"o":"m 227.0 0.0 l 93.0 0.0 l 93.0 394.0 l 24.0 394.0 l 24.0 496.0 l 93.0 496.0 l 93.0 528.0 q 93.0 593.0 114.5 640.5 q 136.0 688.0 175.5 714.0 q 215.0 740.0 268.0 740.0 l 268.0 740.0 q 300.0 740.0 332.5 732.0 q 365.0 724.0 397.0 709.0 l 397.0 709.0 l 370.0 608.0 q 355.0 616.0 335.0 621.5 q 315.0 627.0 297.0 627.0 l 297.0 627.0 q 263.0 627.0 245.0 603.0 q 227.0 579.0 227.0 533.0 l 227.0 533.0 l 227.0 496.0 l 355.0 496.0 l 355.0 394.0 l 227.0 394.0 l 227.0 0.0 z"},"g":{"ha":634,"x_min":30,"x_max":574,"o":"m 266.0 -3.0 l 266.0 -3.0 q 214.0 -3.0 170.5 17.5 q 127.0 38.0 95.5 75.0 q 64.0 112.0 47.0 160.0 q 30.0 208.0 30.0 262.0 l 30.0 262.0 q 30.0 319.0 48.0 368.0 q 66.0 417.0 98.5 454.5 q 131.0 492.0 175.5 512.5 q 220.0 533.0 274.0 533.0 l 274.0 533.0 q 335.0 533.0 381.0 505.5 q 427.0 478.0 457.0 432.0 l 457.0 432.0 l 457.0 524.0 l 574.0 524.0 l 574.0 25.0 q 574.0 -53.0 536.5 -108.5 q 499.0 -164.0 433.0 -193.5 q 367.0 -223.0 283.0 -223.0 l 283.0 -223.0 q 198.0 -223.0 139.0 -194.5 q 80.0 -166.0 38.0 -114.0 l 38.0 -114.0 l 111.0 -43.0 q 141.0 -80.0 186.5 -101.0 q 232.0 -122.0 283.0 -122.0 l 283.0 -122.0 q 326.0 -122.0 361.5 -106.5 q 397.0 -91.0 418.5 -58.5 q 440.0 -26.0 440.0 25.0 l 440.0 25.0 l 440.0 91.0 q 414.0 46.0 366.5 21.5 q 319.0 -3.0 266.0 -3.0 z m 311.0 104.0 l 311.0 104.0 q 333.0 104.0 353.0 111.0 q 373.0 118.0 390.0 130.0 q 407.0 142.0 420.0 158.5 q 433.0 175.0 440.0 192.0 l 440.0 192.0 l 440.0 317.0 q 428.0 348.0 406.5 371.0 q 385.0 394.0 358.5 406.5 q 332.0 419.0 303.0 419.0 l 303.0 419.0 q 272.0 419.0 247.0 406.0 q 222.0 393.0 204.0 369.5 q 186.0 346.0 176.5 317.5 q 167.0 289.0 167.0 258.0 l 167.0 258.0 q 167.0 226.0 178.0 198.0 q 189.0 170.0 208.5 149.0 q 228.0 128.0 254.5 116.0 q 281.0 104.0 311.0 104.0 z"},"h":{"ha":604,"x_min":61,"x_max":548,"o":"m 548.0 327.0 l 548.0 0.0 l 414.0 0.0 l 414.0 294.0 q 414.0 355.0 390.5 385.0 q 367.0 415.0 326.0 415.0 l 326.0 415.0 q 302.0 415.0 275.0 401.0 q 248.0 387.0 226.5 362.5 q 205.0 338.0 195.0 306.0 l 195.0 306.0 l 195.0 0.0 l 61.0 0.0 l 61.0 730.0 l 195.0 730.0 l 195.0 427.0 q 224.0 477.0 274.0 505.0 q 324.0 533.0 383.0 533.0 l 383.0 533.0 q 434.0 533.0 466.0 515.5 q 498.0 498.0 516.0 468.5 q 534.0 439.0 541.0 402.5 q 548.0 366.0 548.0 327.0 l 548.0 327.0 z"},"i":{"ha":255,"x_min":61,"x_max":195,"o":"m 195.0 0.0 l 61.0 0.0 l 61.0 524.0 l 195.0 524.0 l 195.0 0.0 z m 195.0 597.0 l 61.0 597.0 l 61.0 730.0 l 195.0 730.0 l 195.0 597.0 z"},"j":{"ha":261,"x_min":-115,"x_max":200,"o":"m 18.0 -196.0 l 18.0 -196.0 q -19.0 -196.0 -53.0 -184.5 q -87.0 -173.0 -115.0 -149.0 l -115.0 -149.0 l -57.0 -58.0 q -46.0 -70.0 -30.0 -75.0 q -14.0 -80.0 2.0 -80.0 l 2.0 -80.0 q 20.0 -80.0 34.5 -71.5 q 49.0 -63.0 57.5 -48.0 q 66.0 -33.0 66.0 -14.0 l 66.0 -14.0 l 66.0 524.0 l 200.0 524.0 l 200.0 -4.0 q 200.0 -60.0 175.5 -104.0 q 151.0 -148.0 110.5 -172.0 q 70.0 -196.0 18.0 -196.0 z m 200.0 597.0 l 66.0 597.0 l 66.0 730.0 l 200.0 730.0 l 200.0 597.0 z"},"k":{"ha":558,"x_min":61,"x_max":562,"o":"m 562.0 0.0 l 419.0 0.0 l 266.0 226.0 l 195.0 156.0 l 195.0 0.0 l 61.0 0.0 l 61.0 730.0 l 195.0 730.0 l 195.0 288.0 l 406.0 523.0 l 548.0 523.0 l 353.0 301.0 l 562.0 0.0 z"},"l":{"ha":317,"x_min":60,"x_max":320,"o":"m 60.0 121.0 l 60.0 730.0 l 194.0 730.0 l 194.0 168.0 q 194.0 132.0 206.0 119.5 q 218.0 107.0 239.0 107.0 l 239.0 107.0 q 255.0 107.0 272.0 111.0 q 289.0 115.0 302.0 121.0 l 302.0 121.0 l 320.0 19.0 q 293.0 6.0 257.0 -1.0 q 221.0 -8.0 192.0 -8.0 l 192.0 -8.0 q 129.0 -8.0 94.5 25.5 q 60.0 59.0 60.0 121.0 l 60.0 121.0 z"},"m":{"ha":931,"x_min":61,"x_max":875,"o":"m 875.0 327.0 l 875.0 0.0 l 741.0 0.0 l 741.0 294.0 q 741.0 356.0 719.5 385.5 q 698.0 415.0 660.0 415.0 l 660.0 415.0 q 621.0 415.0 585.5 384.5 q 550.0 354.0 535.0 305.0 l 535.0 305.0 l 535.0 0.0 l 401.0 0.0 l 401.0 294.0 q 401.0 357.0 379.5 386.0 q 358.0 415.0 320.0 415.0 l 320.0 415.0 q 281.0 415.0 245.5 385.0 q 210.0 355.0 195.0 306.0 l 195.0 306.0 l 195.0 0.0 l 61.0 0.0 l 61.0 524.0 l 182.0 524.0 l 182.0 427.0 q 212.0 478.0 262.0 505.5 q 312.0 533.0 377.0 533.0 l 377.0 533.0 q 442.0 533.0 478.5 501.0 q 515.0 469.0 525.0 422.0 l 525.0 422.0 q 557.0 476.0 606.5 504.5 q 656.0 533.0 718.0 533.0 l 718.0 533.0 q 767.0 533.0 797.5 515.5 q 828.0 498.0 845.0 468.5 q 862.0 439.0 868.5 402.0 q 875.0 365.0 875.0 327.0 l 875.0 327.0 z"},"n":{"ha":604,"x_min":61,"x_max":548,"o":"m 548.0 327.0 l 548.0 0.0 l 414.0 0.0 l 414.0 294.0 q 414.0 357.0 392.0 386.0 q 370.0 415.0 331.0 415.0 l 331.0 415.0 q 304.0 415.0 276.5 401.0 q 249.0 387.0 227.0 362.5 q 205.0 338.0 195.0 306.0 l 195.0 306.0 l 195.0 0.0 l 61.0 0.0 l 61.0 524.0 l 182.0 524.0 l 182.0 427.0 q 202.0 461.0 233.0 484.5 q 264.0 508.0 304.5 520.5 q 345.0 533.0 390.0 533.0 l 390.0 533.0 q 439.0 533.0 470.5 515.5 q 502.0 498.0 518.5 468.5 q 535.0 439.0 541.5 402.0 q 548.0 365.0 548.0 327.0 l 548.0 327.0 z"},"o":{"ha":606,"x_min":28,"x_max":577,"o":"m 303.0 -10.0 l 303.0 -10.0 q 239.0 -10.0 188.0 11.5 q 137.0 33.0 101.5 71.0 q 66.0 109.0 47.0 158.0 q 28.0 207.0 28.0 261.0 l 28.0 261.0 q 28.0 316.0 47.0 365.0 q 66.0 414.0 101.5 452.0 q 137.0 490.0 188.0 511.5 q 239.0 533.0 303.0 533.0 l 303.0 533.0 q 367.0 533.0 417.5 511.5 q 468.0 490.0 504.0 452.0 q 540.0 414.0 558.5 365.0 q 577.0 316.0 577.0 261.0 l 577.0 261.0 q 577.0 207.0 558.5 158.0 q 540.0 109.0 504.5 71.0 q 469.0 33.0 418.0 11.5 q 367.0 -10.0 303.0 -10.0 z m 166.0 261.0 l 166.0 261.0 q 166.0 215.0 184.0 179.5 q 202.0 144.0 233.0 124.0 q 264.0 104.0 303.0 104.0 l 303.0 104.0 q 341.0 104.0 372.0 124.5 q 403.0 145.0 421.5 180.5 q 440.0 216.0 440.0 262.0 l 440.0 262.0 q 440.0 307.0 421.5 343.0 q 403.0 379.0 372.0 399.0 q 341.0 419.0 303.0 419.0 l 303.0 419.0 q 264.0 419.0 233.0 398.5 q 202.0 378.0 184.0 342.5 q 166.0 307.0 166.0 261.0 z"},"p":{"ha":634,"x_min":61,"x_max":604,"o":"m 375.0 -10.0 l 375.0 -10.0 q 314.0 -10.0 267.5 17.5 q 221.0 45.0 195.0 92.0 l 195.0 92.0 l 195.0 -213.0 l 61.0 -213.0 l 61.0 524.0 l 178.0 524.0 l 178.0 434.0 q 208.0 480.0 254.0 506.5 q 300.0 533.0 359.0 533.0 l 359.0 533.0 q 412.0 533.0 456.5 512.0 q 501.0 491.0 534.0 453.5 q 567.0 416.0 585.5 367.5 q 604.0 319.0 604.0 263.0 l 604.0 263.0 q 604.0 187.0 574.5 125.0 q 545.0 63.0 493.5 26.5 q 442.0 -10.0 375.0 -10.0 z m 330.0 104.0 l 330.0 104.0 q 361.0 104.0 386.0 117.0 q 411.0 130.0 429.5 152.5 q 448.0 175.0 457.5 203.5 q 467.0 232.0 467.0 263.0 l 467.0 263.0 q 467.0 296.0 456.5 324.0 q 446.0 352.0 426.0 373.5 q 406.0 395.0 379.5 407.0 q 353.0 419.0 322.0 419.0 l 322.0 419.0 q 303.0 419.0 283.5 412.5 q 264.0 406.0 246.0 394.0 q 228.0 382.0 214.5 366.0 q 201.0 350.0 195.0 331.0 l 195.0 331.0 l 195.0 208.0 q 207.0 179.0 227.5 155.0 q 248.0 131.0 275.0 117.5 q 302.0 104.0 330.0 104.0 z"},"q":{"ha":634,"x_min":30,"x_max":573,"o":"m 259.0 -10.0 l 259.0 -10.0 q 209.0 -10.0 167.0 11.5 q 125.0 33.0 94.0 70.0 q 63.0 107.0 46.5 157.0 q 30.0 207.0 30.0 263.0 l 30.0 263.0 q 30.0 320.0 48.5 369.0 q 67.0 418.0 100.0 455.0 q 133.0 492.0 178.0 512.5 q 223.0 533.0 275.0 533.0 l 275.0 533.0 q 335.0 533.0 381.0 505.5 q 427.0 478.0 456.0 433.0 l 456.0 433.0 l 456.0 524.0 l 573.0 524.0 l 573.0 -213.0 l 439.0 -213.0 l 439.0 92.0 q 379.0 -10.0 259.0 -10.0 z m 309.0 104.0 l 309.0 104.0 q 338.0 104.0 361.5 115.0 q 385.0 126.0 404.5 145.5 q 424.0 165.0 439.0 190.0 l 439.0 190.0 l 439.0 314.0 q 434.0 336.0 420.5 355.0 q 407.0 374.0 388.5 388.5 q 370.0 403.0 349.0 411.0 q 328.0 419.0 307.0 419.0 l 307.0 419.0 q 276.0 419.0 250.5 406.0 q 225.0 393.0 206.0 370.5 q 187.0 348.0 177.0 319.5 q 167.0 291.0 167.0 259.0 l 167.0 259.0 q 167.0 216.0 185.0 181.0 q 203.0 146.0 235.0 125.0 q 267.0 104.0 309.0 104.0 z"},"r":{"ha":387,"x_min":61,"x_max":373,"o":"m 373.0 530.0 l 373.0 408.0 q 312.0 408.0 264.0 384.5 q 216.0 361.0 195.0 317.0 l 195.0 317.0 l 195.0 0.0 l 61.0 0.0 l 61.0 524.0 l 184.0 524.0 l 184.0 412.0 q 212.0 466.0 255.0 497.0 q 298.0 528.0 346.0 531.0 l 346.0 531.0 l 363.0 531.0 q 369.0 531.0 373.0 530.0 l 373.0 530.0 z"},"s":{"ha":494,"x_min":21,"x_max":464,"o":"m 254.0 -10.0 l 254.0 -10.0 q 187.0 -10.0 126.0 12.0 q 65.0 34.0 21.0 77.0 l 21.0 77.0 l 69.0 164.0 q 116.0 126.0 161.5 108.0 q 207.0 90.0 249.0 90.0 l 249.0 90.0 q 288.0 90.0 311.5 104.0 q 335.0 118.0 335.0 146.0 l 335.0 146.0 q 335.0 165.0 322.0 175.5 q 309.0 186.0 284.5 194.0 q 260.0 202.0 225.0 212.0 l 225.0 212.0 q 167.0 231.0 128.0 249.0 q 89.0 267.0 69.5 294.5 q 50.0 322.0 50.0 365.0 l 50.0 365.0 q 50.0 417.0 76.5 454.5 q 103.0 492.0 150.5 513.0 q 198.0 534.0 262.0 534.0 l 262.0 534.0 q 318.0 534.0 368.0 516.5 q 418.0 499.0 459.0 460.0 l 459.0 460.0 l 405.0 375.0 q 365.0 406.0 329.0 420.5 q 293.0 435.0 256.0 435.0 l 256.0 435.0 q 235.0 435.0 216.5 430.0 q 198.0 425.0 186.5 413.5 q 175.0 402.0 175.0 381.0 l 175.0 381.0 q 175.0 362.0 185.5 351.5 q 196.0 341.0 217.5 333.0 q 239.0 325.0 270.0 315.0 l 270.0 315.0 q 333.0 297.0 376.5 278.0 q 420.0 259.0 442.0 231.5 q 464.0 204.0 464.0 156.0 l 464.0 156.0 q 464.0 78.0 407.0 34.0 q 350.0 -10.0 254.0 -10.0 z"},"t":{"ha":384,"x_min":22,"x_max":375,"o":"m 348.0 133.0 l 375.0 27.0 q 358.0 20.0 334.0 11.0 q 310.0 2.0 282.5 -3.5 q 255.0 -9.0 227.0 -9.0 l 227.0 -9.0 q 190.0 -9.0 159.0 4.0 q 128.0 17.0 109.5 45.5 q 91.0 74.0 91.0 120.0 l 91.0 120.0 l 91.0 421.0 l 22.0 421.0 l 22.0 524.0 l 91.0 524.0 l 91.0 694.0 l 225.0 694.0 l 225.0 524.0 l 335.0 524.0 l 335.0 421.0 l 225.0 421.0 l 225.0 165.0 q 226.0 138.0 240.0 126.0 q 254.0 114.0 275.0 114.0 l 275.0 114.0 q 296.0 114.0 316.0 121.0 q 336.0 128.0 348.0 133.0 l 348.0 133.0 z"},"u":{"ha":618,"x_min":56,"x_max":578,"o":"m 56.0 196.0 l 56.0 196.0 l 56.0 524.0 l 190.0 524.0 l 190.0 225.0 q 190.0 165.0 212.0 134.5 q 234.0 104.0 277.0 104.0 l 277.0 104.0 q 303.0 104.0 328.5 114.5 q 354.0 125.0 375.5 146.0 q 397.0 167.0 412.0 199.0 l 412.0 199.0 l 412.0 524.0 l 546.0 524.0 l 546.0 150.0 q 546.0 129.0 553.5 120.0 q 561.0 111.0 578.0 109.0 l 578.0 109.0 l 578.0 0.0 q 558.0 -3.0 544.5 -4.5 q 531.0 -6.0 520.0 -6.0 l 520.0 -6.0 q 484.0 -6.0 461.5 10.5 q 439.0 27.0 435.0 56.0 l 435.0 56.0 l 432.0 98.0 q 397.0 45.0 342.0 17.5 q 287.0 -10.0 221.0 -10.0 l 221.0 -10.0 q 140.0 -10.0 98.0 42.5 q 56.0 95.0 56.0 196.0 z"},"v":{"ha":550,"x_min":9,"x_max":540,"o":"m 348.0 0.0 l 202.0 0.0 l 9.0 524.0 l 148.0 524.0 l 280.0 122.0 l 413.0 524.0 l 540.0 524.0 l 348.0 0.0 z"},"w":{"ha":839,"x_min":2,"x_max":838,"o":"m 556.0 128.0 l 711.0 524.0 l 838.0 524.0 l 619.0 0.0 l 507.0 0.0 l 419.0 225.0 l 333.0 0.0 l 220.0 0.0 l 2.0 524.0 l 128.0 524.0 l 284.0 128.0 l 345.0 299.0 l 254.0 523.0 l 365.0 523.0 l 419.0 363.0 l 474.0 523.0 l 585.0 523.0 l 494.0 299.0 l 556.0 128.0 z"},"x":{"ha":531,"x_min":4,"x_max":528,"o":"m 7.0 524.0 l 147.0 524.0 l 257.0 360.0 l 265.0 342.0 l 275.0 360.0 l 384.0 524.0 l 525.0 524.0 l 343.0 263.0 l 528.0 0.0 l 387.0 0.0 l 274.0 163.0 l 265.0 180.0 l 257.0 163.0 l 145.0 0.0 l 4.0 0.0 l 189.0 260.0 l 7.0 524.0 z"},"y":{"ha":550,"x_min":6,"x_max":538,"o":"m 72.0 -218.0 l 72.0 -102.0 q 90.0 -106.0 105.5 -109.0 q 121.0 -112.0 132.0 -112.0 l 132.0 -112.0 q 151.0 -112.0 163.5 -102.5 q 176.0 -93.0 188.0 -68.5 q 200.0 -44.0 213.0 0.0 l 213.0 0.0 l 6.0 524.0 l 145.0 524.0 l 286.0 137.0 l 410.0 524.0 l 538.0 524.0 l 318.0 -104.0 q 306.0 -139.0 281.5 -167.5 q 257.0 -196.0 220.5 -212.5 q 184.0 -229.0 139.0 -229.0 l 139.0 -229.0 q 123.0 -229.0 107.0 -226.5 q 91.0 -224.0 72.0 -218.0 l 72.0 -218.0 z"},"z":{"ha":493,"x_min":26,"x_max":464,"o":"m 26.0 0.0 l 26.0 82.0 l 315.0 430.0 l 38.0 430.0 l 38.0 524.0 l 459.0 524.0 l 459.0 442.0 l 172.0 94.0 l 464.0 94.0 l 464.0 0.0 l 26.0 0.0 z"},"[":{"ha":316,"x_min":82,"x_max":269,"o":"m 269.0 -40.0 l 82.0 -40.0 l 82.0 740.0 l 269.0 740.0 l 269.0 633.0 l 206.0 633.0 l 206.0 67.0 l 269.0 67.0 l 269.0 -40.0 z"},"]":{"ha":316,"x_min":46,"x_max":234,"o":"m 234.0 -40.0 l 46.0 -40.0 l 46.0 67.0 l 110.0 67.0 l 110.0 633.0 l 46.0 633.0 l 46.0 740.0 l 234.0 740.0 l 234.0 -40.0 z"},"^":{"ha":585,"x_min":39,"x_max":546,"o":"m 147.0 303.0 l 39.0 303.0 l 237.0 710.0 l 349.0 710.0 l 546.0 303.0 l 436.0 303.0 l 293.0 597.0 l 147.0 303.0 z"},"_":{"ha":475,"x_min":54,"x_max":421,"o":"m 421.0 -121.0 l 54.0 -121.0 l 54.0 0.0 l 421.0 0.0 l 421.0 -121.0 z"},"`":{"ha":255,"x_min":47,"x_max":226,"o":"m 140.0 585.0 l 47.0 730.0 l 171.0 730.0 l 226.0 611.0 l 140.0 585.0 z"},"{":{"ha":317,"x_min":42,"x_max":267,"o":"m 267.0 633.0 l 212.0 633.0 l 212.0 429.0 q 212.0 409.0 203.0 391.5 q 194.0 374.0 178.0 360.0 l 178.0 360.0 q 193.0 347.0 202.5 328.5 q 212.0 310.0 212.0 291.0 l 212.0 291.0 l 212.0 76.0 l 267.0 76.0 l 267.0 -31.0 l 115.0 -31.0 q 108.0 -31.0 100.0 -25.0 q 92.0 -19.0 92.0 -1.0 l 92.0 -1.0 l 92.0 247.0 q 92.0 274.0 76.5 292.5 q 61.0 311.0 42.0 314.0 l 42.0 314.0 l 42.0 408.0 q 56.0 408.0 67.5 418.5 q 79.0 429.0 85.5 444.0 q 92.0 459.0 92.0 473.0 l 92.0 473.0 l 92.0 710.0 q 92.0 729.0 100.5 734.5 q 109.0 740.0 115.0 740.0 l 115.0 740.0 l 267.0 740.0 l 267.0 633.0 z"},"|":{"ha":272,"x_min":79,"x_max":193,"o":"m 193.0 -130.0 l 79.0 -130.0 l 79.0 775.0 l 193.0 775.0 l 193.0 -130.0 z"},"}":{"ha":317,"x_min":50,"x_max":276,"o":"m 105.0 633.0 l 50.0 633.0 l 50.0 740.0 l 203.0 740.0 q 208.0 740.0 217.0 734.5 q 226.0 729.0 226.0 710.0 l 226.0 710.0 l 226.0 473.0 q 226.0 459.0 232.5 444.0 q 239.0 429.0 250.5 418.5 q 262.0 408.0 276.0 408.0 l 276.0 408.0 l 276.0 314.0 q 256.0 311.0 241.0 292.5 q 226.0 274.0 226.0 247.0 l 226.0 247.0 l 226.0 -1.0 q 226.0 -19.0 217.5 -25.0 q 209.0 -31.0 203.0 -31.0 l 203.0 -31.0 l 50.0 -31.0 l 50.0 76.0 l 105.0 76.0 l 105.0 291.0 q 105.0 310.0 114.5 328.5 q 124.0 347.0 140.0 360.0 l 140.0 360.0 q 124.0 374.0 114.5 391.5 q 105.0 409.0 105.0 429.0 l 105.0 429.0 l 105.0 633.0 z"},"~":{"ha":567,"x_min":56,"x_max":514,"o":"m 130.0 228.0 l 56.0 228.0 q 56.0 236.0 63.0 257.5 q 70.0 279.0 86.0 302.5 q 102.0 326.0 128.5 343.0 q 155.0 360.0 195.0 360.0 l 195.0 360.0 q 231.0 360.0 259.5 347.0 q 288.0 334.0 315.0 320.0 q 342.0 306.0 371.0 306.0 l 371.0 306.0 q 399.0 306.0 414.0 318.0 q 429.0 330.0 434.5 343.0 q 440.0 356.0 440.0 358.0 l 440.0 358.0 l 514.0 358.0 q 514.0 352.0 506.5 332.0 q 499.0 312.0 482.5 287.5 q 466.0 263.0 438.5 245.5 q 411.0 228.0 370.0 228.0 l 370.0 228.0 q 334.0 228.0 304.5 241.0 q 275.0 254.0 249.0 267.0 q 223.0 280.0 194.0 280.0 l 194.0 280.0 q 167.0 280.0 153.0 267.5 q 139.0 255.0 134.5 242.0 q 130.0 229.0 130.0 228.0 l 130.0 228.0 z"}}}
